<svg width="100" height="100" viewBox="0 0 100 100" fill="none" xmlns="http://www.w3.org/2000/svg">
<path fill-rule="evenodd" clip-rule="evenodd" d="M49.9999 6.25005C39.6133 6.25145 29.566 9.94811 21.6552 16.6788C13.7445 23.4094 8.4864 32.735 6.82152 42.9874C5.15665 53.2397 7.19361 63.7499 12.568 72.6379C17.9425 81.526 26.3037 88.212 36.1562 91.5001C38.3437 91.9063 39.2812 90.5626 39.2812 89.4063V81.9688C27.1249 84.5938 24.5624 76.0938 24.5624 76.0938C23.7076 73.4152 21.9084 71.1384 19.4999 69.6876C15.5312 67.0001 19.8124 67.0313 19.8124 67.0313C21.1987 67.2271 22.5219 67.7372 23.6809 68.5225C24.8399 69.3078 25.8042 70.3477 26.4999 71.5626C27.7104 73.7336 29.7335 75.3351 32.1244 76.0148C34.5153 76.6946 37.0784 76.397 39.2499 75.1876C39.4264 72.9703 40.4039 70.893 41.9999 69.3438C32.3124 68.2188 22.0937 64.4688 22.0937 47.7188C22.0228 43.3685 23.635 39.1589 26.5937 35.9688C25.2545 32.2007 25.4111 28.0625 27.0312 24.4063C27.0312 24.4063 30.6874 23.2188 39.0624 28.875C46.2233 26.9218 53.7766 26.9218 60.9374 28.875C69.2812 23.2188 72.9374 24.4063 72.9374 24.4063C74.5575 28.0625 74.7141 32.2007 73.3749 35.9688C76.3336 39.1589 77.9458 43.3685 77.8749 47.7188C77.8749 64.5313 67.6562 68.2188 57.9062 69.3126C58.9506 70.3712 59.756 71.6414 60.2681 73.0375C60.7802 74.4337 60.9872 75.9234 60.8749 77.4063V89.4063C60.8749 90.8438 61.6562 91.9376 63.9999 91.5001C73.8653 88.2079 82.2353 81.509 87.6089 72.6046C92.9824 63.7002 95.0082 53.1727 93.3228 42.91C91.6374 32.6473 86.3512 23.3206 78.412 16.6025C70.4729 9.8843 60.4001 6.21412 49.9999 6.25005V6.25005Z" fill="black"/>
</svg>
